<?xml version="1.0" standalone="no"?>
<!DOCTYPE svg PUBLIC "-//W3C//DTD SVG 20010904//EN"
 "http://www.w3.org/TR/2001/REC-SVG-20010904/DTD/svg10.dtd">
<svg version="1.0" xmlns="http://www.w3.org/2000/svg"
 width="16.000000pt" height="16.000000pt" viewBox="0 0 16.000000 16.000000"
 preserveAspectRatio="xMidYMid meet">
<metadata>
Created by potrace 1.11, written by Peter Selinger 2001-2013
</metadata>
<g transform="translate(0.000000,16.000000) scale(0.001674,-0.001674)"
fill="#000000" stroke="none">
<path d="M4645 9223 c-9 -8 -46 -15 -97 -18 -86 -4 -188 -12 -248 -20 -19 -2
-60 -7 -90 -10 -66 -7 -309 -51 -400 -72 -36 -8 -73 -16 -83 -18 -32 -7 -241
-67 -281 -82 -23 -8 -48 -16 -56 -18 -73 -16 -394 -151 -575 -243 -163 -83
-464 -263 -540 -324 -5 -5 -57 -44 -115 -87 -324 -244 -631 -554 -872 -882
-60 -81 -208 -298 -208 -305 0 -3 -11 -23 -26 -45 -94 -149 -243 -450 -311
-629 -52 -136 -140 -400 -149 -443 -2 -10 -6 -27 -9 -37 -3 -10 -7 -27 -9 -37
-2 -10 -9 -38 -16 -63 -7 -25 -13 -52 -15 -60 -32 -161 -55 -285 -59 -325 -4
-27 -8 -63 -11 -80 -22 -138 -30 -289 -30 -555 0 -281 6 -379 40 -622 16 -117
63 -354 91 -453 9 -33 20 -76 24 -95 24 -107 144 -439 220 -605 57 -126 150
-306 217 -419 56 -94 186 -294 214 -330 5 -6 43 -56 85 -111 215 -280 487
-557 759 -771 358 -282 790 -521 1220 -676 152 -54 449 -138 580 -163 17 -3
41 -8 55 -10 80 -17 264 -45 320 -51 36 -3 75 -7 88 -9 12 -2 75 -7 140 -11
138 -8 136 -7 142 -15 3 -4 16 -10 29 -14 18 -6 22 -4 15 6 -6 12 -5 12 9 0
11 -9 17 -10 17 -2 0 6 5 11 11 11 5 0 8 -4 5 -8 -6 -10 55 -9 72 1 7 5 12 3
12 -5 0 -9 3 -9 10 2 9 13 10 13 10 0 0 -13 1 -13 10 0 9 13 10 13 10 0 0 -13
1 -13 10 0 5 8 10 11 10 5 0 -5 21 -9 47 -8 27 1 72 2 101 2 29 1 51 4 49 8
-3 5 22 6 55 5 42 -3 58 -1 54 7 -4 6 -2 11 3 11 6 0 11 -5 11 -11 0 -6 8 -8
18 -5 9 2 44 8 77 11 33 3 69 8 80 9 11 2 48 7 83 11 56 7 61 9 50 24 -11 14
-11 14 4 3 19 -15 88 -7 100 12 6 8 8 8 8 0 0 -9 11 -9 38 -3 180 41 259 64
270 78 7 9 11 10 7 3 -9 -17 20 -11 129 24 47 15 83 31 80 36 -3 4 1 6 8 3 18
-7 153 40 151 53 -1 5 6 8 16 5 11 -3 34 2 53 10 18 9 68 30 111 47 46 19 74
36 70 42 -3 7 -1 8 6 4 14 -9 192 74 185 85 -3 5 3 6 12 2 13 -5 15 -3 9 7 -5
8 -4 11 2 7 11 -7 17 -4 135 61 133 73 178 104 172 114 -4 7 -2 8 5 4 11 -7
152 78 159 96 2 4 8 8 13 8 6 0 15 5 22 10 10 9 126 95 207 155 188 139 454
407 710 713 66 79 263 366 318 462 11 19 36 64 57 100 41 71 185 356 185 365
0 3 9 25 19 48 72 157 168 437 216 627 16 62 20 79 30 125 3 11 7 30 10 42 3
13 7 33 10 45 7 34 27 139 32 173 2 17 8 55 14 85 5 30 11 81 14 112 3 31 8
71 10 90 24 186 24 710 0 873 -2 17 -7 53 -10 80 -7 60 -33 240 -40 275 -3 14
-8 39 -11 55 -4 23 -37 162 -78 330 -50 204 -175 525 -306 785 -218 436 -483
799 -839 1150 -161 159 -224 213 -236 202 -5 -4 -5 -2 -2 4 8 14 -57 66 -68
56 -5 -4 -5 -2 -1 5 6 12 -31 40 -47 35 -4 -1 -6 4 -5 10 2 7 -5 12 -14 12
-10 -1 -16 2 -13 6 7 11 -35 41 -47 34 -5 -3 -7 -1 -6 5 4 13 -63 62 -75 54
-6 -3 -7 -1 -4 4 8 13 -40 46 -54 38 -5 -4 -8 -1 -7 7 2 7 -5 12 -14 12 -10
-1 -16 3 -15 10 1 6 -6 10 -15 10 -10 -1 -15 2 -13 7 3 4 -7 16 -22 25 -15 9
-47 30 -70 46 -24 16 -48 26 -55 22 -6 -4 -8 -3 -5 3 8 13 -20 26 -35 16 -6
-3 -8 -2 -5 4 8 13 -91 76 -109 69 -8 -3 -13 -1 -11 5 8 35 -701 343 -749 325
-8 -3 -12 -2 -9 4 3 5 -14 14 -37 20 -24 6 -63 18 -88 27 -89 30 -311 80 -498
112 -94 17 -104 17 -113 2 -9 -14 -10 -14 -5 2 4 13 -1 17 -19 18 -14 1 -28 2
-32 3 -5 1 -48 6 -98 10 -49 4 -110 10 -135 13 -25 2 -130 5 -233 7 -148 2
-192 0 -202 -11z m109 -1 c3 -5 -1 -9 -9 -9 -8 0 -12 4 -9 9 3 4 7 8 9 8 2 0
6 -4 9 -8z m80 -1 c-8 -8 -64 -9 -60 -2 2 3 18 6 35 6 16 1 28 -2 25 -4z m103
-7 c-3 -3 -12 -4 -19 -1 -8 3 -5 6 6 6 11 1 17 -2 13 -5z m46 -1 c-7 -2 -19
-2 -25 0 -7 3 -2 5 12 5 14 0 19 -2 13 -5z m81 -2 c4 -5 -3 -7 -14 -4 -23 6
-26 13 -6 13 8 0 17 -4 20 -9z m96 -7 c0 -8 -19 -13 -24 -6 -3 5 1 9 9 9 8 0
15 -2 15 -3z m46 -6 c3 -4 -1 -5 -10 -4 -8 1 -18 5 -22 8 -3 4 1 5 10 4 8 -1
18 -5 22 -8z m79 -16 c-3 -3 -11 0 -18 7 -9 10 -8 11 6 5 10 -3 15 -9 12 -12z
m54 -2 c-6 -5 -18 -6 -26 -3 -19 8 -16 11 13 11 17 0 22 -3 13 -8z m165 -18
c3 -5 -1 -9 -9 -9 -8 0 -12 4 -9 9 3 4 7 8 9 8 2 0 6 -4 9 -8z m41 -20 c-3 -3
-11 0 -18 7 -9 10 -8 11 6 5 10 -3 15 -9 12 -12z m202 -28 c-3 -3 -12 -4 -19
-1 -8 3 -5 6 6 6 11 1 17 -2 13 -5z m53 -14 c8 -5 11 -10 5 -10 -5 0 -17 5
-25 10 -8 5 -10 10 -5 10 6 0 17 -5 25 -10z m150 -40 c0 -5 -2 -10 -4 -10 -3
0 -8 5 -11 10 -3 6 -1 10 4 10 6 0 11 -4 11 -10z m135 -48 c-3 -3 -11 0 -18 7
-9 10 -8 11 6 5 10 -3 15 -9 12 -12z m225 -72 c0 -5 -2 -10 -4 -10 -3 0 -8 5
-11 10 -3 6 -1 10 4 10 6 0 11 -4 11 -10z m135 -50 c3 -6 -1 -7 -9 -4 -18 7
-21 14 -7 14 6 0 13 -4 16 -10z m70 -30 c3 -6 -1 -7 -9 -4 -18 7 -21 14 -7 14
6 0 13 -4 16 -10z m330 -168 c-3 -3 -11 0 -18 7 -9 10 -8 11 6 5 10 -3 15 -9
12 -12z m-1842 -8159 c-7 -2 -19 -2 -25 0 -7 3 -2 5 12 5 14 0 19 -2 13 -5z"/>
</g>
</svg>
